<svg width="24" height="24" viewBox="0 0 24 24" fill="none" xmlns="http://www.w3.org/2000/svg">
<path d="M12.0049 2C14.6848 2 16.8881 4.106 17 6.77441H16.9736C16.9767 6.85191 16.9624 6.92919 16.9306 7H17.0869C18.3506 7.00022 19.6762 7.90996 20.1445 10.1201L20.9131 16.3145C21.4787 20.3533 19.2072 22 16.1582 22H7.86813C4.8104 21.9999 2.46816 20.8625 3.10446 16.3145L3.88278 10.1201C4.28048 7.84605 5.65014 7.00003 6.93161 7H7.00974C6.99656 6.92539 6.99657 6.84902 7.00974 6.77441C7.12157 4.10602 9.32493 2.00003 12.0049 2ZM9.09665 10.3291C8.60869 10.3293 8.21286 10.737 8.21286 11.2393C8.21303 11.7414 8.6088 12.1483 9.09665 12.1484C9.58465 12.1484 9.98027 11.7415 9.98044 11.2393C9.98044 10.7369 9.58475 10.3291 9.09665 10.3291ZM14.8857 10.3291C14.3976 10.3291 14.0019 10.7369 14.0019 11.2393C14.0021 11.7415 14.3977 12.1484 14.8857 12.1484C15.3737 12.1484 15.7693 11.7415 15.7695 11.2393C15.7695 10.7369 15.3738 10.3291 14.8857 10.3291ZM11.9658 3.30273C10.0417 3.30273 8.48142 4.85691 8.48142 6.77441C8.4946 6.84906 8.4946 6.92535 8.48142 7H15.4931C15.4653 6.92797 15.4502 6.85158 15.4492 6.77441C15.4492 4.85694 13.8899 3.30277 11.9658 3.30273Z" fill="#FF8F6B"/>
</svg>
